<svg xmlns="http://www.w3.org/2000/svg" viewBox="0 0 800 1000" role="img" aria-labelledby="title desc">
  <title id="title">Alternate placeholder portrait</title>
  <desc id="desc">A second abstract portrait to demonstrate hover swapping.</desc>
  <rect width="800" height="1000" fill="#d9b7a7"/>
  <circle cx="650" cy="170" r="210" fill="#f0d8ca"/>
  <path d="M0 770 800 350v650H0Z" fill="#bd775e"/>
  <circle cx="394" cy="386" r="156" fill="#8c5545"/>
  <path d="M142 1000c26-260 99-411 256-411 159 0 231 151 260 411Z" fill="#493b36"/>
  <path d="M244 368c9-110 65-172 151-172 99 0 158 73 157 205-65-4-126-42-181-114-14 66-56 119-126 157-3-26-3-51-1-76Z" fill="#2f2926"/>
  <circle cx="340" cy="414" r="9" fill="#2f2926"/>
  <circle cx="466" cy="414" r="9" fill="#2f2926"/>
  <path d="M354 486c32 24 65 24 98 0" fill="none" stroke="#2f2926" stroke-width="8" stroke-linecap="round"/>
  <path d="M68 80h164M68 80v164M732 920H568M732 920V756" fill="none" stroke="#493b36" stroke-width="2"/>
  <text x="68" y="938" fill="#2f2926" font-family="monospace" font-size="22" letter-spacing="5">ALTERNATE PORTRAIT</text>
</svg>

